<?xml version="1.0" standalone="no"?>
<!DOCTYPE svg PUBLIC "-//W3C//DTD SVG 20010904//EN"
 "http://www.w3.org/TR/2001/REC-SVG-20010904/DTD/svg10.dtd">
<svg version="1.0" xmlns="http://www.w3.org/2000/svg"
 width="4953.000000pt" height="2793.000000pt" viewBox="0 0 4953.000000 2793.000000"
 preserveAspectRatio="xMidYMid meet">
<metadata>
Created by potrace 1.16, written by Peter Selinger 2001-2019
</metadata>
<g transform="translate(0.000000,2793.000000) scale(0.100000,-0.100000)"
fill="#000000" stroke="none">
<path d="M1306 25528 c-6 -1259 -28 -24079 -23 -24085 2 -1 21 10 43 25 85 61
259 183 719 504 1092 761 1427 995 1550 1082 72 51 175 123 230 161 55 38 123
85 150 104 28 19 205 143 395 276 385 269 873 610 1575 1100 259 180 513 358
565 395 52 37 358 251 680 475 707 493 1317 919 1483 1036 67 47 316 220 552
385 237 165 617 431 845 590 228 160 633 442 900 628 267 186 519 363 560 392
147 103 729 509 745 519 14 8 -25 36 -207 150 -299 187 -565 353 -608 380 -19
13 -294 184 -610 380 -316 197 -618 385 -670 417 -52 33 -160 100 -240 150
-80 50 -179 112 -220 138 -41 26 -176 110 -300 187 -124 77 -526 328 -895 558
-368 230 -861 537 -1095 683 -234 145 -486 303 -560 349 -74 47 -333 208 -575
359 -242 150 -453 282 -470 293 -16 10 -102 64 -190 118 -768 479 -1278 797
-1368 853 l-107 68 85 53 c143 91 420 267 620 394 105 67 426 272 715 455 289
183 579 368 645 410 66 42 480 306 920 585 440 280 837 532 882 562 46 29 142
90 215 136 73 46 216 137 318 202 102 65 250 159 330 210 80 50 469 298 865
550 396 252 803 511 905 575 102 64 293 186 425 270 132 84 308 196 390 248
83 52 204 130 270 172 66 42 554 353 1085 690 531 337 1044 663 1140 725 96
61 411 262 700 445 476 302 647 411 795 505 94 61 630 401 745 474 63 40 149
94 190 121 41 26 449 285 905 575 457 290 859 546 895 569 36 24 128 82 205
131 77 48 219 138 315 200 96 61 261 166 366 233 105 67 195 122 200 122 6 0
55 -28 109 -61 55 -34 332 -204 615 -377 552 -338 1133 -694 1480 -907 118
-73 307 -189 420 -257 113 -69 266 -163 340 -208 74 -46 203 -125 285 -175
185 -113 1163 -712 1575 -965 168 -103 598 -366 955 -585 358 -219 886 -543
1175 -720 289 -177 539 -330 556 -340 l32 -18 148 104 c82 57 239 166 349 243
110 76 288 201 395 276 168 118 834 583 1175 820 137 96 354 247 420 294 55
39 1108 774 1673 1168 200 139 389 271 420 294 31 22 185 130 342 239 306 213
515 360 675 471 55 39 132 92 170 119 39 27 180 126 315 220 135 94 418 292
630 440 212 148 601 419 865 604 264 184 656 458 870 607 215 150 422 295 460
322 39 27 327 229 640 447 314 219 705 493 870 608 165 115 302 211 304 213 2
2 -8150 4 -18116 4 l-18121 0 -6 -1162z"/>
<path d="M19000 20313 c-648 -43 -1135 -135 -1670 -313 -590 -196 -1073 -434
-1600 -789 -558 -376 -1115 -912 -1531 -1471 -65 -88 -164 -228 -201 -285
-106 -165 -144 -228 -220 -360 -973 -1705 -1105 -3773 -356 -5595 74 -180 262
-565 355 -725 285 -493 597 -904 998 -1314 665 -681 1483 -1206 2392 -1535
503 -182 1028 -297 1608 -352 225 -22 828 -25 1045 -6 1150 101 2167 457 3084
1079 1491 1011 2487 2599 2741 4367 50 349 59 495 59 916 1 401 -4 494 -45
820 -149 1196 -665 2373 -1446 3297 -192 227 -463 505 -663 678 -434 377 -853
661 -1345 910 -785 397 -1617 622 -2502 675 -155 9 -588 11 -703 3z m5688
-4819 c87 -36 142 -120 142 -219 0 -123 -65 -198 -207 -240 -276 -82 -411
-125 -618 -192 -232 -76 -876 -297 -1080 -371 -60 -22 -182 -65 -270 -97 -88
-31 -185 -66 -215 -77 -56 -20 -403 -144 -860 -308 -140 -50 -262 -93 -270
-96 -17 -7 -7 -12 215 -110 209 -92 456 -205 614 -280 73 -35 135 -64 137 -64
9 0 678 -337 869 -437 322 -170 577 -314 614 -347 47 -43 73 -106 73 -177 0
-146 -141 -260 -282 -228 -24 6 -132 59 -240 118 -107 60 -265 146 -350 191
-149 79 -885 450 -894 450 -2 0 -70 32 -152 71 -327 156 -777 355 -1172 519
l-124 51 -481 -160 c-1262 -419 -2132 -659 -2957 -815 -732 -138 -1385 -171
-1853 -95 -710 116 -1141 480 -1268 1072 -32 150 -35 264 -9 387 189 923 1037
1349 2465 1239 529 -41 1111 -150 1865 -350 552 -147 1438 -446 2113 -713
l137 -54 238 83 c370 130 562 198 762 270 1438 519 2219 788 2707 934 213 64
284 73 351 45z"/>
<path d="M15800 14810 c-737 -61 -1144 -321 -1271 -813 -25 -98 -22 -178 14
-307 110 -395 448 -609 1047 -661 170 -15 621 -6 820 15 835 92 1841 336 3205
778 l310 100 -80 30 c-141 53 -354 128 -610 214 -1033 349 -1897 553 -2675
630 -179 17 -618 26 -760 14z"/>
<path d="M29345 16659 c-387 -36 -723 -150 -962 -327 -326 -243 -538 -584
-604 -974 -18 -105 -20 -150 -16 -308 4 -155 9 -202 31 -288 52 -205 142 -409
257 -582 81 -122 253 -295 375 -377 196 -130 552 -290 1009 -453 427 -152 712
-272 868 -366 76 -46 204 -167 263 -250 93 -130 135 -255 135 -409 0 -205 -77
-384 -237 -555 -106 -112 -235 -188 -426 -251 -338 -110 -668 -100 -982 29
-160 66 -248 124 -372 247 -170 169 -237 280 -424 704 l-63 144 -186 -7 c-102
-4 -187 -8 -189 -10 -7 -8 0 -554 11 -861 14 -371 11 -359 110 -406 65 -30
629 -197 757 -224 201 -43 492 -75 675 -75 214 0 506 29 660 65 358 83 860
386 1065 641 119 149 184 282 244 502 63 227 70 289 70 572 1 262 -7 336 -51
490 -79 279 -334 607 -608 786 -226 147 -596 306 -995 429 -440 135 -715 258
-891 398 -107 85 -223 251 -270 384 -47 133 -34 337 31 480 102 226 329 390
607 438 113 20 332 19 431 0 250 -51 496 -213 633 -418 94 -141 192 -351 263
-564 l27 -82 52 -5 c150 -17 312 -24 328 -16 25 14 33 111 26 300 -11 276 -72
795 -109 920 l-14 44 -131 43 c-290 95 -503 142 -821 182 -172 22 -403 26
-577 10z"/>
<path d="M33975 16659 c-543 -50 -949 -241 -1229 -578 -184 -222 -291 -449
-337 -722 -18 -106 -20 -151 -16 -309 4 -155 9 -202 31 -288 105 -416 330
-755 637 -961 194 -130 537 -283 1044 -466 420 -152 677 -261 828 -351 84 -51
219 -183 278 -272 26 -40 62 -110 80 -155 27 -70 33 -98 37 -195 3 -67 0 -137
-8 -175 -39 -202 -183 -411 -369 -535 -204 -137 -542 -224 -806 -207 -354 21
-650 152 -866 382 -86 93 -180 225 -233 331 -35 70 -195 426 -210 466 -6 18
-15 19 -192 12 -103 -3 -190 -9 -194 -11 -9 -5 -7 -153 11 -770 13 -459 9
-443 109 -492 97 -49 684 -215 865 -246 271 -46 332 -52 585 -51 636 1 964
105 1450 462 253 187 386 367 478 652 74 230 102 410 102 662 0 450 -96 709
-383 1030 -139 156 -296 269 -532 383 -255 123 -442 196 -746 290 -511 159
-786 290 -946 452 -163 165 -243 337 -243 523 1 365 261 650 664 725 101 19
314 22 406 6 185 -33 344 -110 501 -244 156 -132 275 -337 404 -692 26 -72 48
-132 50 -134 9 -9 352 -28 371 -20 19 7 23 19 30 76 19 184 -46 889 -103 1117
l-18 69 -70 24 c-405 139 -872 224 -1208 222 -89 -1 -202 -5 -252 -10z"/>
<path d="M36490 16410 l0 -178 68 -7 c300 -29 419 -51 495 -92 91 -50 130
-106 262 -378 173 -355 292 -614 373 -810 336 -816 403 -972 672 -1570 477
-1059 702 -1595 880 -2088 37 -104 71 -191 75 -195 11 -11 378 -14 406 -3 23
8 34 32 87 178 33 92 94 272 135 398 41 127 88 258 104 290 29 58 107 252 308
770 306 789 930 2387 970 2485 198 488 333 755 413 818 66 52 210 117 502 226
l145 54 3 141 3 141 -62 0 c-33 0 -165 -12 -292 -27 -221 -27 -253 -28 -667
-27 -394 0 -461 3 -714 27 -153 15 -305 27 -337 27 l-57 0 -7 -95 c-7 -95 -3
-152 14 -198 9 -22 18 -25 118 -36 163 -19 361 -50 426 -67 134 -34 235 -101
258 -171 24 -75 -2 -203 -95 -457 -26 -71 -81 -242 -123 -380 -42 -138 -106
-327 -144 -421 -59 -149 -164 -436 -479 -1305 -68 -188 -294 -753 -319 -797
-7 -14 -10 -13 -16 8 -22 71 -479 1111 -870 1979 -139 309 -201 460 -352 860
-141 374 -150 411 -119 484 14 35 79 92 135 121 83 42 185 67 396 96 121 17
230 32 243 35 20 4 22 10 22 62 0 31 -3 108 -7 170 l-6 112 -136 0 c-75 0
-185 -7 -246 -14 -313 -41 -520 -51 -1040 -50 -491 0 -681 7 -1045 39 -91 8
-213 16 -272 18 l-108 5 0 -178z"/>
<path d="M42760 16425 l0 -154 53 -16 c28 -8 135 -31 237 -50 301 -57 367 -80
428 -149 72 -83 89 -149 102 -411 27 -534 72 -2051 80 -2715 14 -1121 14
-1095 -5 -1178 l-17 -73 -123 -60 c-71 -34 -218 -91 -351 -135 -126 -42 -232
-81 -236 -88 -9 -14 -9 -175 0 -236 l7 -45 75 3 c41 2 127 10 192 18 444 55
845 72 1326 55 191 -6 421 -18 512 -26 216 -20 503 -29 560 -18 40 8 45 12 52
43 11 49 14 196 5 250 l-7 45 -421 52 c-232 28 -423 54 -427 57 -7 8 -20 1059
-22 1831 -1 352 -8 1076 -16 1608 l-15 969 25 53 c18 41 34 58 63 73 143 72
485 89 737 36 98 -20 239 -69 310 -107 124 -65 256 -219 336 -390 90 -192 125
-399 117 -682 -6 -192 -20 -275 -66 -412 -78 -227 -249 -409 -470 -498 -141
-58 -219 -70 -441 -69 -113 1 -223 4 -244 8 l-39 7 6 -149 c3 -83 10 -160 17
-171 22 -42 254 -144 417 -185 181 -45 238 -51 473 -51 248 0 357 16 545 77
494 160 882 575 1010 1078 39 154 50 254 50 445 0 253 -30 377 -155 630 -98
200 -174 310 -304 441 -160 159 -293 240 -526 317 -217 72 -404 101 -755 118
-240 11 -281 10 -795 -22 -80 -5 -397 -13 -705 -19 l-560 -10 -469 30 c-258
16 -491 30 -518 30 l-48 0 0 -155z"/>
<path d="M26500 8010 c-106 -11 -252 -48 -356 -90 -348 -139 -645 -452 -773
-813 -55 -156 -74 -272 -74 -452 -1 -407 127 -726 401 -1002 271 -273 609
-405 997 -390 351 13 635 134 886 375 204 195 322 401 385 670 35 149 45 422
19 573 -33 199 -108 387 -219 549 -120 175 -357 377 -547 464 -211 97 -483
141 -719 116z m332 -394 c345 -66 659 -371 748 -725 41 -162 36 -369 -11 -544
-69 -254 -268 -495 -504 -612 -145 -72 -221 -88 -415 -89 -152 0 -172 2 -254
27 -183 57 -374 182 -483 317 -176 218 -256 536 -207 821 37 217 132 399 288
554 127 126 284 213 451 248 90 20 293 21 387 3z"/>
<path d="M29480 8014 c-191 -22 -334 -61 -478 -131 -383 -186 -673 -573 -748
-995 -22 -125 -21 -352 1 -483 47 -272 152 -494 326 -692 215 -243 489 -393
799 -439 214 -31 493 -6 682 62 215 78 411 217 550 391 50 63 148 218 148 235
0 4 -103 8 -230 8 l-229 0 -83 -83 c-96 -97 -186 -153 -315 -196 -124 -42
-217 -54 -358 -48 -137 6 -227 28 -351 86 -316 148 -510 427 -554 796 -57 477
243 946 690 1075 94 28 323 38 426 21 210 -36 392 -136 509 -278 l50 -61 228
-1 229 -1 -45 84 c-180 339 -493 564 -877 630 -88 15 -308 27 -370 20z"/>
<path d="M24125 7996 c-151 -35 -255 -95 -358 -206 -203 -219 -253 -587 -117
-849 90 -173 246 -295 470 -366 304 -96 391 -134 463 -203 117 -112 143 -343
59 -522 -34 -72 -117 -154 -187 -186 -218 -96 -461 -19 -560 177 -27 53 -55
153 -55 198 0 32 -2 33 -45 33 -14 0 -86 0 -160 -1 l-135 -1 0 -60 c0 -198 98
-421 245 -558 127 -119 276 -179 470 -189 302 -15 550 101 701 329 172 258
190 663 42 916 -45 77 -179 211 -257 256 -92 54 -162 81 -339 132 -172 50
-280 97 -329 144 -168 160 -112 485 102 590 43 22 64 25 155 25 124 0 171 -18
245 -92 54 -55 83 -112 98 -193 l12 -60 177 0 178 0 -6 58 c-34 300 -198 523
-449 608 -69 23 -99 28 -220 30 -94 3 -160 -1 -200 -10z"/>
<path d="M31160 6635 l0 -1325 195 0 195 0 0 1325 0 1325 -195 0 -195 0 0
-1325z"/>
<path d="M32010 6635 l0 -1325 690 0 690 0 -2 183 -3 182 -498 3 -497 2 2 393
3 392 498 3 497 2 0 175 0 175 -497 2 -498 3 -3 393 -2 392 500 0 500 0 0 175
0 175 -690 0 -690 0 0 -1325z"/>
<path d="M33840 6635 l0 -1327 513 5 c573 5 639 11 827 73 186 62 329 152 480
304 176 176 284 379 342 642 19 89 22 132 22 308 0 171 -4 222 -22 305 -59
277 -158 463 -346 651 -179 179 -355 273 -636 340 -66 15 -143 18 -627 21
l-553 4 0 -1326z m1021 949 c386 -65 647 -292 746 -649 27 -95 28 -111 28
-310 0 -198 -2 -216 -27 -307 -46 -163 -116 -286 -225 -395 -206 -206 -431
-268 -945 -261 l-218 3 -2 968 -3 967 276 0 c206 0 299 -4 370 -16z"/>
<path d="M36950 7803 c-34 -87 -102 -259 -150 -383 -335 -854 -813 -2078 -817
-2093 -5 -16 7 -17 197 -15 l202 3 130 335 c71 184 137 355 147 380 l17 45
519 2 520 3 144 -385 145 -385 208 0 c114 0 208 2 208 4 0 3 -117 305 -261
673 -144 367 -341 873 -439 1123 -98 250 -212 544 -255 653 l-78 197 -188 0
-188 0 -61 -157z m435 -838 c98 -264 180 -486 183 -492 3 -10 -76 -13 -373
-13 -297 0 -376 3 -373 13 110 301 375 984 379 979 4 -4 87 -223 184 -487z"/>
<path d="M38550 6635 l0 -1327 513 5 c554 5 633 11 801 64 312 98 588 334 734
629 143 287 180 652 102 990 -111 478 -459 820 -955 936 -85 20 -122 22 -642
25 l-553 4 0 -1326z m1071 942 c378 -90 611 -310 700 -662 30 -114 37 -376 15
-502 -53 -305 -216 -528 -476 -652 -167 -80 -342 -104 -715 -99 l-220 3 -3
968 -2 969 317 -5 c241 -4 334 -9 384 -20z"/>
<path d="M41100 6635 l0 -1325 685 0 685 0 0 180 c0 99 -3 181 -7 181 -31 6
-123 7 -525 8 l-458 1 0 395 0 395 495 0 495 0 0 175 0 175 -495 0 -495 0 0
395 0 395 495 0 495 0 0 175 0 175 -685 0 -685 0 0 -1325z"/>
<path d="M44000 6634 l0 -1326 518 5 c469 4 527 7 630 26 259 48 448 143 636
321 171 162 287 355 350 580 70 250 61 623 -20 865 -138 411 -446 702 -855
809 -164 42 -225 46 -755 46 l-504 0 0 -1326z m1006 951 c118 -19 211 -48 308
-96 105 -52 160 -94 250 -190 202 -214 284 -586 207 -939 -74 -336 -306 -578
-631 -659 -123 -30 -253 -40 -527 -41 l-243 0 0 970 0 970 273 0 c191 0 299
-4 363 -15z"/>
<path d="M46540 6635 l0 -1325 690 0 690 0 -2 183 -3 182 -495 2 -495 2 -3
396 -2 395 500 0 500 0 0 175 0 175 -500 0 -500 0 0 395 0 395 500 0 500 0 0
175 0 175 -690 0 -690 0 0 -1325z"/>
<path d="M12963 4648 c-68 -101 -126 -109 -339 -48 -129 37 -157 42 -219 38
-150 -10 -256 -109 -309 -287 -24 -83 -26 -81 62 -81 l77 1 26 42 c30 51 79
77 140 77 23 0 101 -17 173 -37 265 -75 397 -39 499 138 22 39 67 165 67 190
0 5 -33 9 -74 9 l-75 0 -28 -42z"/>
<path d="M15110 3983 c-348 -34 -596 -150 -841 -393 -209 -208 -324 -420 -386
-711 -27 -128 -24 -398 5 -547 86 -430 351 -778 741 -972 291 -145 689 -170
1009 -63 206 68 375 174 537 337 199 199 306 399 367 679 18 86 22 134 22 302
0 222 -16 327 -74 484 -128 348 -418 650 -756 788 -190 77 -434 115 -624 96z
m334 -408 c269 -68 503 -262 634 -526 155 -313 123 -732 -79 -1026 -94 -136
-280 -289 -421 -346 -184 -73 -431 -87 -612 -33 -433 129 -706 503 -706 967 0
290 113 548 328 751 174 162 368 236 628 237 108 1 148 -3 228 -24z"/>
<path d="M22043 3980 c-218 -25 -415 -98 -602 -222 -42 -28 -130 -105 -196
-172 -202 -204 -308 -390 -376 -666 -21 -84 -23 -118 -23 -300 0 -176 3 -220
23 -310 60 -280 190 -511 397 -710 188 -181 383 -286 634 -342 148 -33 435
-33 587 0 132 29 225 62 343 124 211 109 380 276 515 511 l27 47 -236 0 -236
0 -71 -75 c-108 -113 -227 -183 -391 -227 -122 -33 -357 -33 -477 0 -346 95
-599 353 -693 708 -20 78 -23 112 -23 269 0 207 13 267 91 434 122 260 330
441 599 522 101 30 340 38 456 14 186 -37 337 -121 462 -255 l74 -80 223 2
222 3 -37 70 c-90 170 -228 331 -366 429 -149 104 -341 182 -521 211 -117 19
-311 26 -405 15z"/>
<path d="M46525 3979 c-574 -64 -1054 -516 -1172 -1105 -27 -135 -24 -393 6
-544 37 -190 121 -389 221 -526 219 -300 518 -493 860 -555 123 -23 402 -17
530 10 265 57 507 194 704 401 175 184 281 389 338 653 30 139 33 457 5 587
-39 184 -101 331 -205 486 -287 426 -771 649 -1287 593z m347 -393 c343 -66
653 -365 742 -716 60 -237 34 -500 -69 -716 -97 -202 -300 -396 -496 -475
-149 -60 -354 -84 -504 -60 -347 56 -646 308 -757 637 -134 401 -32 823 268
1103 173 162 371 240 616 241 69 0 159 -6 200 -14z"/>
<path d="M10435 3964 c-195 -42 -372 -182 -463 -367 -56 -114 -75 -203 -75
-362 0 -125 3 -149 26 -221 35 -105 106 -213 193 -293 82 -75 238 -155 382
-196 300 -84 429 -164 483 -301 19 -50 23 -77 23 -179 0 -133 -15 -188 -76
-279 -133 -202 -478 -231 -642 -56 -70 74 -126 205 -126 291 0 22 -6 39 -14
42 -25 10 -324 8 -330 -2 -12 -19 16 -209 45 -296 40 -126 90 -206 189 -306
69 -69 103 -94 170 -127 131 -64 190 -77 365 -76 119 1 166 5 226 22 212 58
376 195 474 397 51 106 70 175 86 310 35 320 -81 589 -324 748 -108 71 -170
97 -362 152 -184 53 -284 98 -339 151 -170 165 -95 509 130 594 82 30 202 28
274 -6 106 -49 176 -140 201 -262 l13 -62 178 0 178 0 -6 48 c-13 102 -47 221
-87 302 -82 167 -249 297 -432 335 -89 19 -269 18 -360 -1z"/>
<path d="M12422 3927 c-5 -7 -28 -59 -50 -117 -44 -113 -129 -332 -646 -1654
-185 -472 -336 -862 -336 -867 0 -5 90 -9 199 -9 l199 0 46 118 c25 64 92 239
150 387 l105 270 33 -2 c18 -1 250 -2 515 -2 l483 -1 13 -32 c8 -18 74 -192
147 -385 l133 -353 208 0 c115 0 209 2 209 4 0 3 -29 78 -64 168 -36 90 -232
591 -436 1113 -204 523 -408 1043 -452 1158 l-82 207 -165 1 c-91 0 -174 2
-183 4 -9 2 -21 -2 -26 -8z m371 -987 c96 -261 179 -483 182 -492 7 -17 -15
-18 -370 -18 -297 0 -376 3 -373 13 56 163 374 985 378 980 4 -5 86 -222 183
-483z"/>
<path d="M19551 3930 c-4 -3 -85 -216 -180 -475 -595 -1615 -552 -1503 -564
-1473 -5 12 -125 338 -267 723 -142 385 -302 817 -354 959 -53 143 -96 261
-96 263 0 1 -90 3 -200 3 -126 0 -200 -4 -200 -10 0 -5 65 -178 144 -382 220
-569 515 -1335 702 -1821 l168 -438 114 3 114 3 422 1100 c233 605 461 1200
508 1322 l85 222 -194 3 c-107 2 -198 1 -202 -2z"/>
<path d="M20115 3932 c-3 -3 -5 -601 -5 -1329 l0 -1323 190 0 190 0 0 1325 0
1325 -162 1 c-90 0 -173 2 -186 3 -12 2 -24 0 -27 -2z"/>
<path d="M23774 3931 c-2 -2 -4 -600 -4 -1328 l0 -1323 685 0 685 0 0 185 0
185 -495 0 -495 0 0 395 0 395 495 0 495 0 0 175 0 175 -495 0 -495 0 0 395 0
395 495 0 495 0 -2 175 -3 175 -678 2 c-373 2 -681 1 -683 -1z"/>
<path d="M25625 3931 c-3 -2 -5 -600 -5 -1328 l0 -1323 191 0 192 0 -6 328
c-4 180 -9 579 -12 887 -3 308 -8 624 -11 703 -3 78 -2 142 3 142 4 0 21 -21
38 -48 16 -26 173 -270 349 -542 175 -272 423 -657 551 -855 127 -198 269
-417 314 -487 l83 -128 184 0 184 0 0 1325 0 1325 -157 1 c-87 1 -171 2 -188
3 l-30 1 -3 -110 c-2 -60 1 -510 7 -1000 5 -489 8 -891 6 -893 -1 -2 -216 326
-476 728 -261 401 -553 852 -649 1000 l-175 270 -165 1 c-91 0 -178 2 -193 3
-15 1 -30 0 -32 -3z"/>
<path d="M27957 3932 c-15 -3 -17 -23 -17 -178 l0 -174 250 0 250 0 0 -1150 0
-1150 190 0 190 0 0 1150 0 1150 250 0 250 0 -2 175 -3 175 -671 3 c-369 1
-678 1 -687 -1z"/>
<path d="M29584 3931 c-2 -2 -4 -600 -4 -1328 l0 -1323 685 0 685 0 0 185 0
185 -495 0 -495 0 0 395 0 395 495 0 495 0 0 175 0 175 -495 0 -495 0 0 395 0
395 495 0 495 0 -2 176 -3 175 -678 2 c-373 1 -681 0 -683 -2z"/>
<path d="M37944 3931 c-2 -2 -4 -600 -4 -1328 l0 -1323 190 0 190 0 0 535 0
535 198 0 c291 0 440 24 591 95 288 137 441 382 441 705 0 213 -66 395 -197
540 -120 134 -273 207 -479 229 -93 11 -921 21 -930 12z m862 -366 c214 -41
330 -156 354 -351 19 -152 -13 -283 -91 -368 -95 -105 -208 -135 -526 -143
l-223 -6 0 442 0 441 204 0 c139 0 229 -5 282 -15z"/>
<path d="M40351 3930 c-4 -3 -113 -277 -243 -610 -130 -333 -307 -785 -393
-1005 -297 -757 -357 -910 -380 -973 l-24 -62 202 0 202 0 149 385 c130 336
152 385 170 385 136 2 1011 -2 1014 -4 2 -3 68 -174 147 -383 l143 -378 211
-3 211 -2 -21 52 c-11 29 -124 316 -249 638 -126 322 -343 878 -483 1235 -140
358 -260 667 -267 687 l-14 37 -184 3 c-101 2 -187 1 -191 -2z m364 -981 c96
-261 179 -484 185 -496 l10 -23 -375 0 c-242 0 -375 4 -375 10 0 5 69 193 154
417 210 556 218 575 222 570 2 -2 82 -217 179 -478z"/>
<path d="M41890 3932 c-14 -5 -13 -1787 1 -1947 17 -201 57 -313 157 -444 106
-138 253 -236 427 -283 68 -18 108 -21 260 -21 155 -1 191 2 259 21 219 60
390 200 487 397 42 86 63 157 80 275 15 101 25 1990 11 1999 -5 3 -94 5 -196
3 l-185 -3 -4 -962 c-3 -954 -3 -963 -25 -1045 -26 -99 -51 -150 -99 -203 -69
-77 -175 -112 -332 -111 -270 2 -397 106 -448 367 -15 80 -18 191 -23 1023
l-5 933 -178 2 c-97 1 -182 1 -187 -1z"/>
<path d="M44026 3933 c-3 -4 -6 -602 -6 -1330 l0 -1323 625 0 625 0 0 185 0
185 -435 0 -435 0 0 1140 0 1140 -157 1 c-87 0 -170 2 -185 4 -14 2 -29 1 -32
-2z"/>
<path d="M32480 2605 l0 -1327 508 5 c535 5 607 10 782 58 230 62 485 242 640
450 102 138 186 325 226 509 26 119 27 485 2 610 -55 270 -174 491 -361 673
-162 157 -344 255 -587 315 l-105 26 -552 3 -553 4 0 -1326z m1010 950 c226
-37 375 -111 526 -260 90 -89 106 -111 153 -205 108 -221 138 -489 82 -755
-63 -303 -273 -548 -551 -640 -147 -49 -206 -56 -537 -62 l-313 -6 0 972 0
971 273 0 c197 0 298 -4 367 -15z"/>
<path d="M35020 2605 l0 -1325 690 0 690 0 -2 183 -3 182 -497 3 -498 2 0 395
0 395 500 0 500 0 0 175 0 175 -500 0 -500 0 0 395 0 395 500 0 500 0 0 175 0
175 -690 0 -690 0 0 -1325z"/>
</g>
</svg>
